<?xml version="1.0" encoding="iso-8859-1"?>
<!-- Generator: Adobe Illustrator 19.0.0, SVG Export Plug-In . SVG Version: 6.00 Build 0)  -->
<svg version="1.1" id="Layer_1" xmlns="http://www.w3.org/2000/svg" xmlns:xlink="http://www.w3.org/1999/xlink" x="0px" y="0px"
	 viewBox="0 0 512 512" style="enable-background:new 0 0 512 512;" xml:space="preserve">
<polygon style="fill:#FD7052;" points="345.893,136.556 345.893,470.235 38.454,470.235 38.454,136.556 124.172,0 260.164,0 "/>
<polygon style="fill:#FF4F18;" points="345.893,136.556 345.893,470.235 193.203,470.235 193.203,0 260.164,0 "/>
<rect x="78.435" y="141.07" style="fill:#C9E8FA;" width="229.548" height="289.78"/>
<rect x="193.204" y="141.07" style="fill:#B6E0F7;" width="114.779" height="289.78"/>
<rect x="181.866" y="65.979" style="fill:#FFFFFF;" width="20.607" height="20.607"/>
<g>
	<rect x="149.587" y="281.514" style="fill:#FD7052;" width="20.609" height="20.609"/>
	<rect x="181.866" y="281.514" style="fill:#FD7052;" width="20.607" height="20.607"/>
	<rect x="214.145" y="281.514" style="fill:#FD7052;" width="20.617" height="20.607"/>
</g>
<rect x="193.204" y="65.979" style="fill:#D9D8DB;" width="9.269" height="20.607"/>
<g>
	<rect x="193.204" y="281.514" style="fill:#FF4F18;" width="9.269" height="20.607"/>
	<rect x="214.145" y="281.514" style="fill:#FF4F18;" width="20.617" height="20.607"/>
</g>
<path style="fill:#67BFFF;" d="M473.546,406.594c0,58.215-47.191,105.406-105.406,105.406c-0.251,0-0.502,0-0.752-0.01
	c-28.475-0.188-54.255-11.683-73.106-30.21c-16.928-16.636-28.266-38.935-30.931-63.847c-0.397-3.72-0.617-7.503-0.617-11.338
	c0-31.589,13.908-59.929,35.915-79.25c0.24-0.209,0.481-0.418,0.721-0.617c8.579-7.398,18.37-13.428,29.019-17.775
	c12.048-4.901,25.205-7.66,38.998-7.743c0.251-0.01,0.502-0.01,0.752-0.01C426.356,301.199,473.546,348.379,473.546,406.594z"/>
<path style="fill:#0088FF;" d="M473.546,406.594c0,58.215-47.191,105.406-105.406,105.406c-0.251,0-0.502,0-0.752-0.01v-210.78
	c0.251-0.01,0.502-0.01,0.752-0.01C426.356,301.199,473.546,348.379,473.546,406.594z"/>
<polygon style="fill:#FFFFFF;" points="423.607,391.944 423.607,423.293 383.815,423.293 383.815,465.154 352.466,465.154 
	352.466,423.293 312.674,423.293 312.674,391.944 352.466,391.944 352.466,350.093 383.815,350.093 383.815,391.944 "/>
<polygon style="fill:#D9D8DB;" points="423.607,391.944 423.607,423.293 383.815,423.293 383.815,465.154 367.388,465.154 
	367.388,350.093 383.815,350.093 383.815,391.944 "/>
<g>
</g>
<g>
</g>
<g>
</g>
<g>
</g>
<g>
</g>
<g>
</g>
<g>
</g>
<g>
</g>
<g>
</g>
<g>
</g>
<g>
</g>
<g>
</g>
<g>
</g>
<g>
</g>
<g>
</g>
</svg>
